<svg id="Layer_1" data-name="Layer 1" xmlns="http://www.w3.org/2000/svg" viewBox="0 0 3292 2522"><defs><style>.cls-1{fill:#fff;}.cls-2{fill:#2cefcf;}.cls-3{fill:#89ffec;}.cls-4{fill:#08e8de;}.cls-5{fill:#ff017e;}.cls-6{fill:#00ffed;}</style></defs><title>logo svg</title><rect class="cls-1" width="3292" height="2522"/><path class="cls-2" d="M541.09,645.86v365.51A735.73,735.73,0,0,0,138,1004.81V518.14A695.48,695.48,0,0,0,417.74,635,701.92,701.92,0,0,0,541.09,645.86Z" transform="translate(561 293)"/><path class="cls-3" d="M1167.89,1229.5a679.38,679.38,0,0,0-102,94.32,641,641,0,0,0-127.49-15.58c-4.78-.12-9.59-.17-14.4-.17a644.37,644.37,0,0,0-129.56,13.07V995.77a99.42,99.42,0,0,1,99.42-99.42h204.25a99.16,99.16,0,0,1,43.19,9.85q-4.19,43.45-4.23,88A908.16,908.16,0,0,0,1167.89,1229.5Z" transform="translate(561 293)"/><path class="cls-4" d="M541.09,212.63V645.86A701.92,701.92,0,0,1,417.74,635,695.48,695.48,0,0,1,138,518.14V212.63a99.42,99.42,0,0,1,99.42-99.42H441.67A99.42,99.42,0,0,1,541.09,212.63Z" transform="translate(561 293)"/><path class="cls-5" d="M1795.21,121.88a905,905,0,0,0-344.29,186.2V212.63a99.42,99.42,0,0,1,99.42-99.42h204.25A98.75,98.75,0,0,1,1795.21,121.88Z" transform="translate(561 293)"/><path class="cls-5" d="M1197.54,995.77v324.72a902.47,902.47,0,0,1-60.46-326.24q0-44.57,4.23-88A99.42,99.42,0,0,1,1197.54,995.77Z" transform="translate(561 293)"/><path class="cls-6" d="M1854,1022.78v134a677,677,0,0,0-403.09-50.93V920.56A762.1,762.1,0,0,0,1833.85,1023Q1844,1023,1854,1022.78Z" transform="translate(561 293)"/><path class="cls-4" d="M1854,212.63v810.15q-10.06.26-20.15.26a762.1,762.1,0,0,1-382.93-102.47V308.07a905,905,0,0,1,344.29-186.2A99.39,99.39,0,0,1,1854,212.63Z" transform="translate(561 293)"/><path class="cls-2" d="M1197.54,1320.49v438.1a99.42,99.42,0,0,1-99.42,99.42H904a674.12,674.12,0,0,1,263.91-628.5A900.12,900.12,0,0,0,1197.54,1320.49Z" transform="translate(561 293)"/><path class="cls-3" d="M1854,1156.77v601.81a99.42,99.42,0,0,1-89,98.87,95.61,95.61,0,0,1-10.39.55H1559.52a638.71,638.71,0,0,0-108.6-274.85V1105.84A677,677,0,0,1,1854,1156.77Z" transform="translate(561 293)"/><path class="cls-5" d="M1559.52,1858h-9.18a99.42,99.42,0,0,1-99.42-99.42V1583.15A638.71,638.71,0,0,1,1559.52,1858Z" transform="translate(561 293)"/><path class="cls-5" d="M541.09,1434.73v323.85A99.42,99.42,0,0,1,441.67,1858H288.52C313.37,1685.08,407.12,1534.41,541.09,1434.73Z" transform="translate(561 293)"/><path class="cls-1" d="M997.5,1416.39A675.57,675.57,0,0,0,904,1858H893.88a99.42,99.42,0,0,1-99.42-99.42V1321.15A644.37,644.37,0,0,1,924,1308.08c4.81,0,9.62.06,14.4.17a641,641,0,0,1,127.49,15.58A674,674,0,0,0,997.5,1416.39Z" transform="translate(561 293)"/><path class="cls-3" d="M541.09,1011.37v423.36c-134,99.68-227.72,250.35-252.56,423.27H237.42A99.42,99.42,0,0,1,138,1758.58V1004.81a735.73,735.73,0,0,1,403.09,6.56Z" transform="translate(561 293)"/></svg>